# xmcd
#
# Track frame offsets:
#	180
#	16259
#	30572
#	45368
#	71282
#	81973
#	99212
#	124168
#	137766
#	153879
#	171869
#	184258
#	205578
#
# Disc length: 3004 seconds
#
# Revision: 1
# Processed by: cddbd v1.4PL0 Copyright (c) Steve Scherf et al.
# Submitted via: audiograbber 1.81.03
#
DISCID=9a0bba0d
DTITLE=Wild Blues Yonder - Wild Blues Yonder - Live @ AJ's Hanger
DYEAR=1995
DGENRE=
TTITLE0=Boogie Thing
TTITLE1=Little By Little
TTITLE2=Can't Get No Grindin'
TTITLE3=Rain
TTITLE4=Snatch it Back
TTITLE5=Shot of Love
TTITLE6=Help Me
TTITLE7=Can't Stop Lovin' My Baby
TTITLE8=Good Mornin Little School Girl
TTITLE9=Cold Shot
TTITLE10=Blue Sky Is Fallin'
TTITLE11=Shake Your Money Maker
TTITLE12=Rollin' and Tumblin'
EXTD=
EXTT0=
EXTT1=
EXTT2=
EXTT3=
EXTT4=
EXTT5=
EXTT6=
EXTT7=
EXTT8=
EXTT9=
EXTT10=
EXTT11=
EXTT12=
PLAYORDER=
